HIERARCHY
ROOT Hips
{
	OFFSET 151.697800 93.143646 -72.043053
	CHANNELS 6 Xposition Yposition Zposition Xrotation Yrotation Zrotation 
	JOINT RightUpLeg
	{
		OFFSET 0.103458 1.857831 10.548505
		CHANNELS 3 Xrotation Yrotation Zrotation
		JOINT RightLeg
		{
			OFFSET 43.500000 -0.000031 0.000002
			CHANNELS 3 Xrotation Yrotation Zrotation
			JOINT RightFoot
			{
				OFFSET 42.372200 0.000023 0.000003
				CHANNELS 3 Xrotation Yrotation Zrotation
				JOINT RightToe
				{
					OFFSET 17.299997 -0.000001 -0.000010
					CHANNELS 3 Xrotation Yrotation Zrotation
					End Site
					{
						OFFSET 0.000000 0.000000 0.000000
					}
				}
			}
		}
	}
	JOINT LeftUpLeg
	{
		OFFSET 0.103457 1.857828 -10.548510
		CHANNELS 3 Xrotation Yrotation Zrotation
		JOINT LeftLeg
		{
			OFFSET 43.500046 -0.000015 0.000002
			CHANNELS 3 Xrotation Yrotation Zrotation
			JOINT LeftFoot
			{
				OFFSET 42.372261 -0.000008 0.000023
				CHANNELS 3 Xrotation Yrotation Zrotation
				JOINT LeftToe
				{
					OFFSET 17.299990 -0.000007 -0.000002
					CHANNELS 3 Xrotation Yrotation Zrotation
					End Site
					{
						OFFSET 0.000000 0.000000 0.000000
					}
				}
			}
		}
	}
	JOINT Spine
	{
		OFFSET 6.901967 -2.603726 -0.000001
		CHANNELS 3 Xrotation Yrotation Zrotation
		JOINT Spine1
		{
			OFFSET 12.588100 -0.000009 -0.000003
			CHANNELS 3 Xrotation Yrotation Zrotation
			JOINT Spine2
			{
				OFFSET 12.343202 0.000008 0.000008
				CHANNELS 3 Xrotation Yrotation Zrotation
				JOINT Neck
				{
					OFFSET 25.832897 -0.000015 -0.000004
					CHANNELS 3 Xrotation Yrotation Zrotation
					JOINT Head
					{
						OFFSET 11.766609 0.000013 -0.000006
						CHANNELS 3 Xrotation Yrotation Zrotation
						End Site
						{
							OFFSET 0.000000 0.000000 0.000000
						}
					}
				}
				JOINT RightShoulder
				{
					OFFSET 19.745911 -1.480373 6.000098
					CHANNELS 3 Xrotation Yrotation Zrotation
					JOINT RightArm
					{
						OFFSET 11.284123 -0.000007 -0.000032
						CHANNELS 3 Xrotation Yrotation Zrotation
						JOINT RightForeArm
						{
							OFFSET 33.000050 0.000005 0.000031
							CHANNELS 3 Xrotation Yrotation Zrotation
							JOINT RightHand
							{
								OFFSET 25.200008 0.000017 0.000013
								CHANNELS 3 Xrotation Yrotation Zrotation
								End Site
								{
									OFFSET 0.000000 0.000000 0.000000
								}
							}
						}
					}
				}
				JOINT LeftShoulder
				{
					OFFSET 19.746092 -1.480379 -6.000077
					CHANNELS 3 Xrotation Yrotation Zrotation
					JOINT LeftArm
					{
						OFFSET 11.284136 -0.000017 -0.000017
						CHANNELS 3 Xrotation Yrotation Zrotation
						JOINT LeftForeArm
						{
							OFFSET 33.000099 0.000019 0.000015
							CHANNELS 3 Xrotation Yrotation Zrotation
							JOINT LeftHand
							{
								OFFSET 25.199780 0.000140 0.000408
								CHANNELS 3 Xrotation Yrotation Zrotation
								End Site
								{
									OFFSET 0.000000 0.000000 0.000000
								}
							}
						}
					}
				}
			}
		}
	}
}
MOTION
Frames: 8
Frame Time: 0.033333
-49.259151 89.884773 -543.801086 83.388106 2.762259 -9.986817 -178.164405 8.020492 -177.632156 -25.453796 -4.323465 -7.638583 85.302888 6.010477 3.469743 21.454557 0.003108 0.000017 147.270189 6.279403 -177.926769 -63.876134 0.247020 5.859175 68.591594 -2.465576 5.161595 21.454555 -0.003090 0.000000 8.828395 -0.547663 -1.531645 7.657692 -0.992898 -3.096194 7.340040 -1.011706 -3.090153 14.901294 4.488852 11.303680 -8.365264 -10.238612 14.848630 -173.410785 -75.364212 -8.181347 -18.209971 58.489758 15.241473 -69.417842 -16.995850 2.642290 0.839063 -3.141858 21.345524 -169.438866 76.780506 12.285795 10.207804 -53.391452 -41.617029 -33.232234 16.755451 -1.408945 10.198785 -0.126860 -18.171541 
-53.868279 89.678391 -544.451172 83.578737 3.223542 -8.370179 -174.352818 7.844804 -176.912049 -23.555589 -4.754049 -6.694484 85.489892 5.463488 3.927095 21.454558 0.003108 0.000017 147.456886 6.909394 -175.525890 -49.800948 -0.322141 6.285444 67.647908 -2.777262 5.078728 21.454553 -0.003090 -0.000000 8.726050 -0.573609 -1.795691 7.455887 -1.030511 -3.624644 7.138408 -1.052506 -3.618368 14.378163 5.487070 11.726138 -8.562848 -10.400543 15.408319 -174.192118 -75.973724 -7.386973 -19.333277 57.192388 12.718171 -75.101038 -14.494063 2.707257 0.415886 -3.062951 22.918403 -166.554641 77.066705 15.228813 13.504656 -50.941941 -47.813735 -35.101947 16.818704 -1.455039 7.535920 2.472676 -19.807460 
-58.493431 89.295601 -545.112915 83.805397 3.308065 -7.318175 -170.560547 7.243195 -175.675689 -21.693232 -5.459357 -6.344786 85.912735 5.280926 4.196087 21.454557 0.003108 0.000017 149.570611 6.378493 -174.345319 -32.657962 -0.187415 5.933733 67.169105 -2.315065 5.678967 21.454553 -0.003093 0.000001 8.628192 -0.588397 -1.944559 7.261921 -1.053837 -3.922252 6.944579 -1.077622 -3.915838 13.730632 6.624768 11.953660 -8.186403 -11.039998 15.852968 -174.397310 -76.291068 -7.179976 -19.996110 56.232992 9.848525 -79.272016 -12.247248 2.730065 -0.253904 -2.916477 24.164210 -164.717621 76.946111 17.104020 14.835755 -49.007567 -50.906575 -35.316408 16.270769 -1.424615 5.367784 4.965191 -19.918628 
-63.032452 88.802872 -545.742920 84.020978 3.269790 -6.760070 -166.898896 6.628006 -175.555095 -19.998247 -5.705132 -5.718840 86.049674 4.893341 4.344593 21.454551 0.003108 0.000017 152.613446 5.576797 -175.348906 -15.487857 0.814928 4.703036 65.641909 -0.721812 7.424154 21.454550 -0.003092 -0.000001 8.502514 -0.619221 -1.990625 7.012122 -1.116947 -4.015172 6.694822 -1.141294 -4.008376 13.572314 7.612610 12.105820 -7.989876 -11.672962 16.218134 -174.771331 -76.424920 -6.799160 -19.846890 55.753909 7.705284 -81.934942 -10.416711 2.718213 -1.101268 -3.834164 24.927827 -162.656802 77.003232 19.206408 14.881148 -48.286162 -51.178263 -34.077238 15.273674 -1.332069 5.244944 4.519551 -19.404371 
-67.796753 87.857277 -546.347229 83.746090 3.655863 -6.574829 -163.411784 6.682404 -176.236052 -19.827884 -5.590973 -4.852233 86.089958 4.321003 4.395666 21.454565 0.003108 0.000017 153.478503 5.415102 -179.785482 -8.057598 2.458318 4.258690 67.993440 -1.234027 5.556030 21.454551 -0.003092 -0.000001 8.432260 -0.740099 -1.991090 6.876113 -1.360868 -4.022768 6.558775 -1.385253 -4.014501 13.638670 8.279771 12.345560 -7.535900 -11.960720 16.517283 -174.520295 -76.667125 -7.057519 -19.481967 56.101272 6.806442 -82.833659 -9.800283 2.714536 -2.061651 -5.340846 24.933481 -161.419322 77.210077 20.466370 13.959526 -48.308613 -49.399773 -31.942592 14.183387 -1.215973 5.703978 2.005954 -19.655836 
-72.590431 86.904892 -546.978394 83.269596 3.321454 -7.108704 -160.778951 6.337800 -178.031736 -21.797068 -5.315292 -3.985945 85.169918 3.720309 4.075136 21.454555 0.003108 0.000017 153.861431 3.797899 -179.163662 -9.118847 2.425864 3.875527 67.275751 -0.882826 5.680881 21.454553 -0.003094 0.000000 8.403204 -0.671598 -1.810942 6.813732 -1.235665 -3.658356 6.496259 -1.257858 -3.650844 13.928467 8.341910 12.629431 -7.658529 -12.084029 16.847915 -174.525322 -75.983341 -7.046626 -18.397186 56.610722 6.929579 -81.874126 -10.408608 2.714969 -2.268819 -5.960959 26.125999 -162.156505 77.105029 19.715705 11.748021 -48.360635 -46.644738 -28.833784 13.355098 -1.102038 6.960680 -0.091540 -20.986519 
-77.117203 86.089653 -547.573486 83.055018 2.260312 -7.538879 -159.526554 5.531694 179.755662 -25.659494 -4.539194 -3.286197 83.592295 3.281255 3.951287 21.454558 0.003108 0.000017 152.690368 2.139298 -174.843772 -16.264251 1.640921 0.574130 63.692156 0.058387 1.432232 21.454551 -0.003092 -0.000000 8.356050 -0.344150 -1.634201 6.707912 -0.593246 -3.285559 6.390360 -0.613203 -3.281926 14.205902 7.433355 12.879011 -7.903160 -12.049972 17.072609 -174.970909 -74.674663 -6.579070 -16.277528 57.205846 8.799188 -78.778644 -12.072590 2.696278 -2.800594 -6.083254 24.662751 -162.771891 77.664688 19.082184 9.102989 -49.279327 -43.546947 -26.237101 12.769404 -1.019268 8.513121 -1.178045 -25.278380 
-81.720161 85.438240 -548.260071 82.661053 0.990371 -7.151794 -160.277793 4.077500 177.405366 -32.979527 -3.452999 -2.241004 78.599829 2.853742 4.406714 21.454560 0.003108 0.000017 152.224494 0.440200 -176.482867 -22.361696 1.346640 1.455702 59.668813 -1.856150 -1.589106 21.454550 -0.003092 -0.000001 8.368847 0.078986 -1.580222 6.721460 0.249377 -3.153180 6.403867 0.230204 -3.154631 14.669870 6.984332 13.034501 -7.782008 -12.027810 17.173201 -173.980081 -74.377113 -7.591401 -14.941502 59.121066 12.132568 -72.814980 -15.090628 2.651540 -2.121124 -7.051751 22.658178 -165.051439 77.359091 16.760601 6.131711 -49.289271 -41.134490 -25.668283 12.850883 -1.015292 10.347850 -1.796923 -30.609633 
